<?xml version="1.0" encoding="utf-8"?>
<!-- Generator: Adobe Illustrator 17.0.0, SVG Export Plug-In . SVG Version: 6.00 Build 0)  -->
<!DOCTYPE svg PUBLIC "-//W3C//DTD SVG 1.1//EN" "http://www.w3.org/Graphics/SVG/1.1/DTD/svg11.dtd">
<svg version="1.1" id="layer1" xmlns="http://www.w3.org/2000/svg" xmlns:xlink="http://www.w3.org/1999/xlink" x="0px" y="0px"
	 width="167.6px" height="33.5px" viewBox="0 0 167.6 33.5" enable-background="new 0 0 167.6 33.5" xml:space="preserve">
<g>
	<g>
		<path d="M15.9,10c0.2,0.2,0.2,0.4,0.2,0.7v15.6c0,0.3-0.1,0.6-0.3,0.8c-0.2,0.2-0.5,0.3-0.8,0.3c-0.3,0-0.6-0.1-0.8-0.3
			c-0.2-0.2-0.3-0.5-0.3-0.8V15.8c-0.7,2.1-1.4,4-2.1,5.7l-2.1,5.2c-0.2,0.5-0.5,0.7-1,0.7s-0.8-0.2-1-0.7l-2.1-5.2
			c-0.7-1.7-1.4-3.6-2.1-5.6v10.4c0,0.3-0.1,0.6-0.3,0.8c-0.2,0.2-0.5,0.3-0.8,0.3c-0.3,0-0.6-0.1-0.8-0.3c-0.2-0.2-0.3-0.5-0.3-0.8
			V10.7c0-0.3,0.1-0.5,0.2-0.7C1.8,9.8,2,9.7,2.3,9.7c0.1,0,0.1,0,0.2,0c0.2,0,0.4,0,0.5,0.1c0.2,0.1,0.4,0.3,0.5,0.6
			c2.6,6.5,4.4,11,5.3,13.5c0.9-2.5,2.6-7,5.3-13.5c0.1-0.2,0.3-0.4,0.5-0.6c0.2-0.1,0.3-0.1,0.5-0.1c0.1,0,0.1,0,0.2,0
			C15.6,9.7,15.8,9.8,15.9,10z"/>
		<path d="M36.7,14.2c0.3,0,0.6,0.1,0.8,0.3c0.2,0.2,0.3,0.5,0.3,0.8v11c0,0.3-0.1,0.6-0.3,0.8s-0.5,0.3-0.8,0.3s-0.6-0.1-0.8-0.3
			c-0.2-0.2-0.3-0.5-0.3-0.8v-0.6c-1.2,1.1-2.7,1.7-4.3,1.7c-1.8,0-3.3-0.6-4.6-1.9c-1.3-1.3-1.9-2.8-1.9-4.7c0-1.8,0.6-3.4,1.9-4.7
			c1.3-1.3,2.8-1.9,4.6-1.9c1.6,0,3.1,0.6,4.3,1.7v-0.6c0-0.3,0.1-0.6,0.3-0.8C36.1,14.3,36.4,14.2,36.7,14.2z M31.3,25.2
			c1.2,0,2.2-0.4,3-1.3c0.8-0.9,1.3-1.9,1.3-3.1c0-1.2-0.4-2.3-1.3-3.1c-0.8-0.9-1.9-1.3-3-1.3s-2.2,0.4-3,1.3
			c-0.8,0.9-1.3,1.9-1.3,3.1c0,1.2,0.4,2.2,1.3,3.1C29.1,24.8,30.1,25.2,31.3,25.2z"/>
		<path d="M52.3,14.2c0.3,0,0.6,0.1,0.8,0.3c0.2,0.2,0.3,0.5,0.3,0.8s-0.1,0.6-0.3,0.8c-0.2,0.2-0.5,0.3-0.8,0.3
			c-1.1,0-2,0.4-2.7,1.3c-0.8,0.9-1.1,1.9-1.1,3.1v5.5c0,0.3-0.1,0.6-0.3,0.8c-0.2,0.2-0.5,0.3-0.8,0.3c-0.3,0-0.6-0.1-0.8-0.3
			c-0.2-0.2-0.3-0.5-0.3-0.8v-11c0-0.3,0.1-0.6,0.3-0.8c0.2-0.2,0.5-0.3,0.8-0.3c0.3,0,0.6,0.1,0.8,0.3c0.2,0.2,0.3,0.5,0.3,0.8v0.4
			C49.5,14.7,50.8,14.2,52.3,14.2z"/>
		<path d="M70,25.5c0.2,0.2,0.3,0.5,0.4,0.8c0,0.3-0.1,0.6-0.3,0.8c-0.2,0.2-0.5,0.4-0.8,0.4c-0.3,0-0.5-0.1-0.7-0.3l-5.5-5v4.2
			c0,0.3-0.1,0.6-0.3,0.8c-0.2,0.2-0.5,0.3-0.8,0.3c-0.3,0-0.6-0.1-0.8-0.3c-0.2-0.2-0.3-0.5-0.3-0.8V10.8c0-0.3,0.1-0.6,0.3-0.8
			c0.2-0.2,0.5-0.3,0.8-0.3c0.3,0,0.6,0.1,0.8,0.3c0.2,0.2,0.3,0.5,0.3,0.8V19l5.2-4.6c0.2-0.2,0.5-0.3,0.8-0.3
			c0.3,0,0.5,0.1,0.8,0.4S70,15,70,15.3s-0.1,0.6-0.4,0.8l-5,4.5L70,25.5z"/>
		<path d="M84.2,14.2c1.8,0,3.3,0.6,4.6,1.9c1.3,1.3,1.9,2.8,1.9,4.7c0,1.8-0.6,3.4-1.9,4.7c-1.3,1.3-2.8,1.9-4.6,1.9
			c-1.6,0-3.1-0.6-4.3-1.7v5.1c0,0.3-0.1,0.6-0.3,0.8c-0.2,0.2-0.5,0.3-0.8,0.3c-0.3,0-0.6-0.1-0.8-0.3c-0.2-0.2-0.3-0.5-0.3-0.8
			V15.3c0-0.3,0.1-0.6,0.3-0.8c0.2-0.2,0.5-0.3,0.8-0.3c0.3,0,0.6,0.1,0.8,0.3c0.2,0.2,0.3,0.5,0.3,0.8v0.6
			C81.1,14.7,82.6,14.2,84.2,14.2z M84.2,25.2c1.2,0,2.2-0.4,3-1.3c0.8-0.9,1.3-1.9,1.3-3.1c0-1.2-0.4-2.3-1.3-3.1
			c-0.8-0.9-1.9-1.3-3-1.3s-2.2,0.4-3,1.3c-0.8,0.9-1.3,1.9-1.3,3.1c0,1.2,0.4,2.2,1.3,3.1C82,24.8,83,25.2,84.2,25.2z"/>
		<path d="M100.1,25.5c-0.6-0.6-1.1-1.3-1.4-2.1c-0.4-0.8-0.5-1.7-0.5-2.6c0-1.8,0.6-3.4,1.9-4.7c0.6-0.6,1.3-1.1,2.1-1.4
			c0.8-0.4,1.7-0.5,2.6-0.5c1.8,0,3.4,0.6,4.7,1.9c0.6,0.6,1.1,1.3,1.4,2.1c0.4,0.8,0.5,1.7,0.5,2.6c0,0.3-0.1,0.6-0.3,0.8
			c-0.2,0.2-0.5,0.3-0.8,0.3h-9.9c0.2,1,0.8,1.7,1.6,2.4c0.8,0.6,1.7,0.9,2.8,0.9c1.6,0,2.9-0.5,3.8-1.5c0.2-0.2,0.4-0.3,0.8-0.4
			s0.6,0.1,0.8,0.3c0.2,0.2,0.3,0.5,0.4,0.8c0,0.3-0.1,0.6-0.3,0.8c-1.3,1.5-3.1,2.2-5.4,2.2C103,27.4,101.4,26.7,100.1,25.5z
			 M109.1,19.7c-0.2-1-0.8-1.8-1.6-2.4c-0.8-0.6-1.7-0.9-2.8-0.9c-1,0-2,0.3-2.8,0.9c-0.8,0.6-1.3,1.4-1.6,2.4H109.1z"/>
		<path d="M125.3,14.1c1.7,0,3.1,0.6,4.3,1.9c1.2,1.3,1.8,2.8,1.8,4.7v5.5c0,0.3-0.1,0.6-0.3,0.8c-0.2,0.2-0.5,0.3-0.8,0.3
			s-0.6-0.1-0.8-0.3c-0.2-0.2-0.3-0.5-0.3-0.8v-5.5c0-1.2-0.4-2.3-1.1-3.1c-0.8-0.9-1.7-1.3-2.7-1.3c-1.1,0-2,0.4-2.8,1.3
			c-0.8,0.9-1.1,1.9-1.1,3.1v5.5c0,0.3-0.1,0.6-0.3,0.8c-0.2,0.2-0.5,0.3-0.8,0.3c-0.3,0-0.6-0.1-0.8-0.3c-0.2-0.2-0.3-0.5-0.3-0.8
			v-11c0-0.3,0.1-0.6,0.3-0.8c0.2-0.2,0.5-0.3,0.8-0.3c0.3,0,0.6,0.1,0.8,0.3c0.2,0.2,0.3,0.5,0.3,0.8v0.4
			C122.6,14.7,123.9,14.1,125.3,14.1z"/>
	</g>
</g>
<g>
	<path fill="none" stroke="#000000" stroke-width="2" stroke-linecap="round" stroke-linejoin="round" stroke-miterlimit="10" d="
		M147.4,18.5l1.3,7.9l7.7-2.5l10.1-16.6c0,0,0.5-3.1-3-5.2c-3.5-2.1-5.7-0.7-5.7-0.7L147.4,18.5z"/>
	
		<line fill="none" stroke="#000000" stroke-width="2" stroke-linecap="round" stroke-linejoin="round" stroke-miterlimit="10" x1="130.3" y1="26.4" x2="148.5" y2="26.4"/>
</g>
<g>
</g>
<g>
</g>
<g>
</g>
<g>
</g>
<g>
</g>
<g>
</g>
</svg>
